<?xml version="1.0" encoding="UTF-8" standalone="no"?>
<!-- Created with Inkscape (http://www.inkscape.org/) -->

<svg
   xmlns:dc="http://purl.org/dc/elements/1.1/"
   xmlns:cc="http://creativecommons.org/ns#"
   xmlns:rdf="http://www.w3.org/1999/02/22-rdf-syntax-ns#"
   xmlns:svg="http://www.w3.org/2000/svg"
   xmlns="http://www.w3.org/2000/svg"
   xmlns:sodipodi="http://sodipodi.sourceforge.net/DTD/sodipodi-0.dtd"
   xmlns:inkscape="http://www.inkscape.org/namespaces/inkscape"
   width="122.28984mm"
   height="122.28984mm"
   viewBox="0 0 433.31046 433.31046"
   id="svg2"
   version="1.1"
   inkscape:version="0.91 r13725"
   sodipodi:docname="4x4-numerical-tic-tac-toe.svg">
  <defs
     id="defs4" />
  <sodipodi:namedview
     id="base"
     pagecolor="#ffffff"
     bordercolor="#666666"
     borderopacity="1.0"
     inkscape:pageopacity="0.0"
     inkscape:pageshadow="2"
     inkscape:zoom="0.49497475"
     inkscape:cx="-408.85128"
     inkscape:cy="73.492846"
     inkscape:document-units="px"
     inkscape:current-layer="layer1"
     showgrid="false"
     fit-margin-top="0"
     fit-margin-left="0"
     fit-margin-right="0"
     fit-margin-bottom="0"
     inkscape:window-width="1535"
     inkscape:window-height="876"
     inkscape:window-x="65"
     inkscape:window-y="24"
     inkscape:window-maximized="1" />
  <metadata
     id="metadata7">
    <rdf:RDF>
      <cc:Work
         rdf:about="">
        <dc:format>image/svg+xml</dc:format>
        <dc:type
           rdf:resource="http://purl.org/dc/dcmitype/StillImage" />
        <dc:title />
      </cc:Work>
    </rdf:RDF>
  </metadata>
  <g
     inkscape:label="Layer 1"
     inkscape:groupmode="layer"
     id="layer1"
     transform="translate(-126.19479,-320.84683)">
    <rect
       style="opacity:1;fill:#000000;fill-opacity:1;fill-rule:nonzero;stroke:none;stroke-width:20;stroke-linecap:butt;stroke-miterlimit:4;stroke-dasharray:none;stroke-dashoffset:0;stroke-opacity:1"
       id="rect91359"
       width="3.027637"
       height="433.31039"
       x="423.87476"
       y="-559.50525"
       ry="1.2745439"
       transform="matrix(0,1,-1,0,0,0)" />
    <g
       transform="translate(15.152288,3.0304576)"
       style="font-style:normal;font-variant:normal;font-weight:normal;font-stretch:normal;font-size:50px;line-height:125%;font-family:Caladea;-inkscape-font-specification:Caladea;letter-spacing:0px;word-spacing:0px;fill:#000000;fill-opacity:1;stroke:none;stroke-width:1px;stroke-linecap:butt;stroke-linejoin:miter;stroke-opacity:1"
       id="flowRoot91373">
      <path
         d="m 172.79219,381.10579 0,3.7 -20.75,0 0,-2.9 q 8.4,-7.95 11.6,-12.75 3.2,-4.8 3.2,-9.15 0,-6.25 -5.15,-6.25 -2.35,0 -3.7,1.15 -1.35,1.15 -1.35,2.95 0,1.75 1.05,3.1 -1.1,1.1 -2.5,1.1 -1.35,0 -2.3,-0.95 -0.9,-0.95 -0.9,-2.85 0,-3.45 2.75,-5.2 2.8,-1.8 7.25,-1.8 4.45,0 6.95,2.4 2.55,2.4 2.55,6.8 0,4.4 -3.25,9.25 -3.25,4.8 -10.95,11.4 l 15.5,0 z"
         style=""
         id="path91393" />
    </g>
    <g
       transform="translate(105.76693,113.71296)"
       style="font-style:normal;font-variant:normal;font-weight:normal;font-stretch:normal;font-size:50px;line-height:125%;font-family:Caladea;-inkscape-font-specification:Caladea;letter-spacing:0px;word-spacing:0px;fill:#000000;fill-opacity:1;stroke:none;stroke-width:1px;stroke-linecap:butt;stroke-linejoin:miter;stroke-opacity:1"
       id="flowRoot91381">
      <path
         d="m 161.94219,356.20579 -6.7,0 0,-2.15 q 5.05,-0.45 9.45,-2.8 l 1.65,0.75 0,29.6 q 1.65,0.9 6.25,1.5 l -0.15,1.7 -17.4,0 0.1,-1.7 q 4.45,-0.5 6.8,-1.5 l 0,-25.4 z"
         style=""
         id="path91388" />
      <path
         d="m 183.07656,351.30579 q 4.15,0.1 8.35,0.1 4.2,0 6.65,-0.05 l 1,0.7 -0.4,2.95 -13.45,0 0,10.6 q 2.7,-1.05 5.5,-1.05 4.65,0 7.45,2.8 2.8,2.75 2.8,7.4 0,4.65 -3.05,7.55 -3,2.9 -7.55,2.9 -4.5,0 -7.2,-1.8 -2.7,-1.85 -2.7,-4.75 0,-1.45 0.75,-2.25 0.8,-0.85 2.15,-0.85 1.4,0 2.4,0.8 -0.45,1.25 -0.45,2.05 0,1.9 1.35,3.1 1.35,1.15 3.55,1.15 3.05,0 4.7,-2.05 1.7,-2.05 1.7,-5.7 0,-3.7 -1.7,-5.7 -1.7,-2.05 -4.85,-2.05 -3.1,0 -6.45,2 l -1.55,-1.65 0,-15.5 1,-0.7 z"
         style=""
         id="path91390" />
    </g>
    <g
       transform="translate(15.352288,225.32495)"
       style="font-style:normal;font-variant:normal;font-weight:normal;font-stretch:normal;font-size:50px;line-height:125%;font-family:Caladea;-inkscape-font-specification:Caladea;letter-spacing:0px;word-spacing:0px;fill:#000000;fill-opacity:1;stroke:none;stroke-width:1px;stroke-linecap:butt;stroke-linejoin:miter;stroke-opacity:1"
       id="flowRoot91389">
      <path
         d="m 164.99219,375.65579 -14.4,0 -0.35,-1.7 14.1,-22.5 5.05,0 0,21.45 4.75,0 0,2.75 -4.75,0 0,5.95 q 1.55,0.95 4.35,1.35 l -0.25,1.85 -13.4,0 0.3,-1.85 q 2.9,-0.35 4.6,-1.35 l 0,-5.95 z m 0,-2.75 0,-17.4 -10.8,17.4 10.8,0 z"
         style=""
         id="path91385" />
    </g>
    <rect
       transform="matrix(0,1,-1,0,0,0)"
       ry="1.2745439"
       y="-559.50519"
       x="535.98822"
       height="433.31039"
       width="3.027637"
       id="rect91442"
       style="opacity:1;fill:#000000;fill-opacity:1;fill-rule:nonzero;stroke:none;stroke-width:20;stroke-linecap:butt;stroke-miterlimit:4;stroke-dasharray:none;stroke-dashoffset:0;stroke-opacity:1" />
    <rect
       style="opacity:1;fill:#000000;fill-opacity:1;fill-rule:nonzero;stroke:none;stroke-width:20;stroke-linecap:butt;stroke-miterlimit:4;stroke-dasharray:none;stroke-dashoffset:0;stroke-opacity:1"
       id="rect91444"
       width="3.027637"
       height="433.31039"
       x="648.10168"
       y="-559.50519"
       ry="1.2745439"
       transform="matrix(0,1,-1,0,0,0)" />
    <rect
       transform="scale(-1,-1)"
       ry="1.2745439"
       y="-754.15729"
       x="-456.47729"
       height="433.31039"
       width="3.027637"
       id="rect91452"
       style="opacity:1;fill:#000000;fill-opacity:1;fill-rule:nonzero;stroke:none;stroke-width:20;stroke-linecap:butt;stroke-miterlimit:4;stroke-dasharray:none;stroke-dashoffset:0;stroke-opacity:1" />
    <rect
       style="opacity:1;fill:#000000;fill-opacity:1;fill-rule:nonzero;stroke:none;stroke-width:20;stroke-linecap:butt;stroke-miterlimit:4;stroke-dasharray:none;stroke-dashoffset:0;stroke-opacity:1"
       id="rect91454"
       width="3.027637"
       height="433.31039"
       x="-344.36383"
       y="-754.15723"
       ry="1.2745439"
       transform="scale(-1,-1)" />
    <rect
       transform="scale(-1,-1)"
       ry="1.2745439"
       y="-754.15729"
       x="-232.25038"
       height="433.31039"
       width="3.027637"
       id="rect91456"
       style="opacity:1;fill:#000000;fill-opacity:1;fill-rule:nonzero;stroke:none;stroke-width:20;stroke-linecap:butt;stroke-miterlimit:4;stroke-dasharray:none;stroke-dashoffset:0;stroke-opacity:1" />
    <g
       transform="translate(331.03095,332.91606)"
       style="font-style:normal;font-variant:normal;font-weight:normal;font-stretch:normal;font-size:50px;line-height:125%;font-family:Caladea;-inkscape-font-specification:Caladea;letter-spacing:0px;word-spacing:0px;fill:#000000;fill-opacity:1;stroke:none;stroke-width:1px;stroke-linecap:butt;stroke-linejoin:miter;stroke-opacity:1"
       id="flowRoot91458">
      <path
         d="m 161.94219,356.20579 -6.7,0 0,-2.15 q 5.05,-0.45 9.45,-2.8 l 1.65,0.75 0,29.6 q 1.65,0.9 6.25,1.5 l -0.15,1.7 -17.4,0 0.1,-1.7 q 4.45,-0.5 6.8,-1.5 l 0,-25.4 z"
         style=""
         id="path91377" />
      <path
         d="m 189.67656,356.20579 -6.7,0 0,-2.15 q 5.05,-0.45 9.45,-2.8 l 1.65,0.75 0,29.6 q 1.65,0.9 6.25,1.5 l -0.15,1.7 -17.4,0 0.1,-1.7 q 4.45,-0.5 6.8,-1.5 l 0,-25.4 z"
         style=""
         id="path91379" />
    </g>
    <g
       style="font-style:normal;font-weight:normal;font-size:40px;line-height:125%;font-family:sans-serif;letter-spacing:0px;word-spacing:0px;fill:#000000;fill-opacity:1;stroke:none;stroke-width:1px;stroke-linecap:butt;stroke-linejoin:miter;stroke-opacity:1"
       id="text91466">
      <path
         d="m 500.53174,495.89883 0,-3.59375 q 1.48437,0.70313 3.00781,1.07422 1.52344,0.3711 2.98828,0.3711 3.90625,0 5.95703,-2.61719 2.07032,-2.63672 2.36328,-7.98828 -1.13281,1.67969 -2.87109,2.57812 -1.73828,0.89844 -3.84766,0.89844 -4.375,0 -6.93359,-2.63672 -2.53906,-2.65625 -2.53906,-7.24609 0,-4.49219 2.65625,-7.20703 2.65625,-2.71485 7.07031,-2.71485 5.05859,0 7.71484,3.88672 2.67579,3.86719 2.67579,11.25 0,6.89453 -3.28125,11.01563 -3.26172,4.10156 -8.78907,4.10156 -1.48437,0 -3.00781,-0.29297 -1.52344,-0.29297 -3.16406,-0.87891 z m 7.85156,-12.36328 q 2.65625,0 4.19922,-1.8164 1.5625,-1.81641 1.5625,-4.98047 0,-3.14453 -1.5625,-4.96094 -1.54297,-1.83594 -4.19922,-1.83594 -2.65625,0 -4.21875,1.83594 -1.54297,1.81641 -1.54297,4.96094 0,3.16406 1.54297,4.98047 1.5625,1.8164 4.21875,1.8164 z"
         style=""
         id="path91382" />
    </g>
  </g>
</svg>
